<?xml version="1.0" standalone="no"?>
<!DOCTYPE svg PUBLIC "-//W3C//DTD SVG 20010904//EN"
 "http://www.w3.org/TR/2001/REC-SVG-20010904/DTD/svg10.dtd">
<svg version="1.0" xmlns="http://www.w3.org/2000/svg"
 width="500.000000pt" height="85.000000pt" viewBox="0 0 500.000000 85.000000"
 preserveAspectRatio="xMidYMid meet">

<g transform="translate(0.000000,85.000000) scale(0.100000,-0.100000)"
fill="#000000" stroke="none">
<path d="M3110 843 c-76 -10 -164 -34 -217 -60 -71 -35 -146 -116 -170 -185
-25 -74 -26 -271 0 -345 39 -110 153 -197 302 -228 220 -46 436 -20 554 65 22
17 43 30 45 30 2 0 6 -27 10 -60 l7 -60 79 0 80 0 0 228 0 229 -127 6 c-71 4
-194 7 -275 7 l-148 0 0 -70 0 -70 126 0 c114 0 125 -2 113 -16 -34 -41 -69
-49 -214 -49 -160 0 -201 12 -235 67 -15 25 -20 50 -20 101 0 65 2 71 33 102
42 42 90 55 197 55 99 0 153 -13 197 -46 30 -23 38 -24 193 -24 l162 0 -7 33
c-29 133 -129 225 -291 268 -78 20 -310 34 -394 22z"/>
<path d="M4308 840 c-193 -24 -320 -97 -378 -215 -21 -43 -25 -68 -28 -177 -5
-152 10 -213 67 -285 49 -61 125 -107 226 -135 107 -29 382 -32 488 -5 133 33
233 101 277 187 44 86 52 289 15 392 -37 106 -153 192 -300 223 -87 19 -278
27 -367 15z m253 -261 c30 -7 64 -23 82 -39 30 -26 32 -33 35 -109 4 -81 4
-81 -30 -115 -46 -46 -100 -59 -223 -54 -117 4 -168 24 -197 78 -33 62 -18
160 30 203 47 43 192 60 303 36z"/>
<path d="M7 835 c-4 -5 -7 -188 -7 -407 l0 -398 475 0 475 0 0 100 0 100 -315
0 -315 0 0 55 0 55 315 0 315 0 0 90 0 90 -315 0 -315 0 0 55 0 55 315 0 315
0 0 100 0 100 -357 0 c-197 0 -407 3 -468 6 -60 4 -113 3 -118 -1z"/>
<path d="M1110 430 l0 -400 160 0 160 0 0 95 0 96 142 -3 143 -3 74 -97 74
-98 163 0 c90 0 164 3 164 6 0 3 -38 55 -84 114 l-84 107 47 34 c88 66 142
184 127 283 -15 100 -84 193 -175 238 -45 23 -51 23 -478 26 l-433 3 0 -401z
m749 146 c27 -24 27 -70 1 -96 -19 -19 -33 -20 -225 -20 l-205 0 0 71 0 70
204 -3 c184 -3 206 -5 225 -22z"/>
<path d="M2292 428 l3 -403 155 0 155 0 3 403 2 402 -160 0 -160 0 2 -402z"/>
</g>
</svg>
